<?xml version="1.0" standalone="no"?>
<!DOCTYPE svg PUBLIC "-//W3C//DTD SVG 20010904//EN"
 "http://www.w3.org/TR/2001/REC-SVG-20010904/DTD/svg10.dtd">
<svg version="1.0" xmlns="http://www.w3.org/2000/svg"
 width="511.000000pt" height="871.000000pt" viewBox="0 0 511.000000 871.000000"
 preserveAspectRatio="xMidYMid meet">

<g transform="translate(0.000000,871.000000) scale(0.100000,-0.100000)"
fill="#000000" stroke="none">
<path d="M4286 8685 c-236 -60 -425 -252 -481 -488 -19 -81 -19 -237 0 -312
46 -181 177 -346 337 -424 122 -60 190 -74 328 -69 184 7 313 63 439 189 76
76 122 147 159 251 24 66 27 86 27 213 -1 133 -2 144 -32 222 -39 103 -86 173
-165 250 -79 75 -131 108 -233 146 -69 26 -96 30 -200 33 -83 2 -138 -1 -179
-11z"/>
<path d="M2340 7380 c-502 -42 -986 -233 -1380 -547 -103 -82 -294 -271 -376
-373 -296 -367 -480 -794 -551 -1275 -23 -159 -23 -541 0 -700 120 -842 624
-1553 1364 -1924 373 -187 665 -258 1093 -268 385 -9 659 34 979 154 319 118
605 300 854 543 214 208 366 413 497 670 142 281 216 515 262 835 17 120 17
550 0 675 -41 292 -122 557 -248 810 -207 417 -490 742 -864 992 -230 153
-591 305 -851 357 -244 49 -555 70 -779 51z m355 -1180 c361 -41 689 -247 896
-562 107 -164 179 -344 215 -539 24 -131 24 -402 1 -524 -60 -305 -203 -576
-407 -768 -149 -141 -348 -253 -537 -304 -91 -25 -112 -27 -308 -27 -196 0
-217 2 -308 27 -119 32 -278 106 -384 179 -271 185 -469 502 -550 878 -27 128
-25 439 5 572 31 142 65 238 132 373 240 484 723 754 1245 695z"/>
<path d="M720 2190 c-132 -21 -236 -74 -330 -169 -76 -78 -123 -160 -150 -267
-48 -187 -10 -324 164 -589 408 -620 1011 -1005 1771 -1132 89 -15 163 -18
390 -17 258 0 291 2 425 27 561 102 1023 343 1396 728 124 128 204 229 307
384 145 220 177 304 177 470 0 83 -5 113 -28 180 -52 149 -152 264 -286 330
-172 85 -371 85 -541 0 -103 -51 -154 -101 -272 -266 -59 -83 -135 -178 -169
-213 -81 -81 -219 -179 -311 -222 -196 -92 -546 -139 -853 -114 -540 43 -725
145 -1083 597 -131 165 -198 216 -337 257 -67 20 -197 28 -270 16z"/>
</g>
</svg>
